<?xml version="1.0" encoding="UTF-8"?>
<!DOCTYPE svg PUBLIC "-//W3C//DTD SVG 1.1//EN" "http://www.w3.org/Graphics/SVG/1.1/DTD/svg11.dtd">
<svg xmlns="http://www.w3.org/2000/svg" version="1.1" width="1640px" height="924px" style="shape-rendering:geometricPrecision; text-rendering:geometricPrecision; image-rendering:optimizeQuality; fill-rule:evenodd; clip-rule:evenodd" xmlns:xlink="http://www.w3.org/1999/xlink">
<g><path style="opacity:1" fill="#fefefe" d="M -0.5,-0.5 C 546.167,-0.5 1092.83,-0.5 1639.5,-0.5C 1639.5,307.5 1639.5,615.5 1639.5,923.5C 1092.83,923.5 546.167,923.5 -0.5,923.5C -0.5,615.5 -0.5,307.5 -0.5,-0.5 Z"/></g>
<g><path style="opacity:1" fill="#434e59" d="M 1217.5,477.5 C 1217.19,497.431 1214.19,517.097 1208.5,536.5C 1208.67,537.167 1208.83,537.833 1209,538.5C 1213.24,524.374 1216.41,510.041 1218.5,495.5C 1227.12,405.146 1196.79,330.979 1127.5,273C 1108.67,258.87 1088.34,247.204 1066.5,238C 1063.11,236.311 1060.11,234.144 1057.5,231.5C 1059.76,230.353 1062.1,230.186 1064.5,231C 1126.54,253.373 1172.71,293.873 1203,352.5C 1227.04,402.007 1234.7,454.007 1226,508.5C 1226.28,507.584 1226.78,506.918 1227.5,506.5C 1227.66,509.518 1227.5,512.518 1227,515.5C 1224.81,526.264 1222.31,536.931 1219.5,547.5C 1216.72,554.481 1213.72,561.481 1210.5,568.5C 1211.24,569.287 1212.08,569.953 1213,570.5C 1213.86,567.891 1215.03,566.225 1216.5,565.5C 1209.09,582.529 1200.09,598.529 1189.5,613.5C 1189.23,611.158 1188.39,611.158 1187,613.5C 1184.98,617.003 1182.81,620.337 1180.5,623.5C 1158.31,649.901 1132.31,671.568 1102.5,688.5C 1070.86,704.493 1037.52,714.827 1002.5,719.5C 959.697,723.928 918.364,718.095 878.5,702C 869.998,698.584 861.998,694.417 854.5,689.5C 886.563,705.682 920.563,714.349 956.5,715.5C 985.668,718.383 1014.34,715.717 1042.5,707.5C 1017.48,713.077 992.149,715.411 966.5,714.5C 871.655,705.769 803.489,658.769 762,573.5C 761.333,572.167 761.333,570.833 762,569.5C 791.028,624.195 833.861,664.029 890.5,689C 909.728,695.038 929.394,698.371 949.5,699C 871.204,687.02 814.704,645.52 780,574.5C 777.804,569.58 775.804,564.58 774,559.5C 773.333,558.167 773.333,556.833 774,555.5C 816.245,643.311 886.245,688.644 984,691.5C 1058.23,689.387 1118.23,659.387 1164,601.5C 1175.85,584.807 1185.35,566.807 1192.5,547.5C 1197.94,533.07 1202.78,518.404 1207,503.5C 1215.41,464.311 1211.74,426.311 1196,389.5C 1212.46,441.957 1210.96,493.957 1191.5,545.5C 1156.79,623.682 1096.79,667.516 1011.5,677C 1003.83,677.667 996.167,677.667 988.5,677C 1079.43,673.484 1144.59,630.984 1184,549.5C 1200.33,510.156 1205,469.49 1198,427.5C 1183.5,370.702 1153.34,324.202 1107.5,288C 1109.46,287.376 1111.13,287.876 1112.5,289.5C 1113.29,288.645 1112.96,287.811 1111.5,287C 1096.79,277.477 1081.12,269.81 1064.5,264C 1060.43,262.216 1056.6,260.049 1053,257.5C 970.058,232.355 895.225,247.189 828.5,302C 793.431,333.62 769.098,372.12 755.5,417.5C 768.66,418.167 781.66,418.833 794.5,419.5C 779.833,419.5 765.167,419.5 750.5,419.5C 751.209,418.596 752.209,418.263 753.5,418.5C 753.263,407.7 755.429,397.366 760,387.5C 788.946,318.891 838.78,272.724 909.5,249C 1020.05,221.722 1109.22,253.556 1177,344.5C 1176.87,341.902 1175.87,339.569 1174,337.5C 1128.51,274.322 1066.68,239.489 988.5,233C 893.403,229.968 818.237,266.801 763,343.5C 744.408,371.693 731.575,402.36 724.5,435.5C 723.542,433.698 722.875,431.698 722.5,429.5C 742.772,346.517 791.772,287.017 869.5,251C 950.548,217.185 1029.21,221.851 1105.5,265C 1171.81,307.734 1208.97,368.567 1217,447.5C 1217.5,457.494 1217.67,467.494 1217.5,477.5 Z"/></g>
<g><path style="opacity:1" fill="#f6f6f7" d="M 750.5,419.5 C 750.5,449.167 750.5,478.833 750.5,508.5C 759.167,508.5 767.833,508.5 776.5,508.5C 776.5,501.167 776.5,493.833 776.5,486.5C 807.96,489.206 822.127,474.873 819,443.5C 818.338,441.187 817.838,438.854 817.5,436.5C 819.847,439.68 821.347,443.347 822,447.5C 826.403,478.261 813.237,494.428 782.5,496C 781.107,497.171 780.273,498.671 780,500.5C 780.721,506.681 778.887,511.848 774.5,516C 764.826,518.589 755.492,517.756 746.5,513.5C 743.325,515.091 739.991,516.091 736.5,516.5C 736.5,519.167 736.5,521.833 736.5,524.5C 735.335,519.367 734.668,514.034 734.5,508.5C 737.167,508.5 739.833,508.5 742.5,508.5C 741.119,499.311 738.953,490.311 736,481.5C 735.005,476.547 734.338,471.547 734,466.5C 733.333,469.167 732.667,469.167 732,466.5C 729.558,456.115 727.058,445.781 724.5,435.5C 731.575,402.36 744.408,371.693 763,343.5C 818.237,266.801 893.403,229.968 988.5,233C 1066.68,239.489 1128.51,274.322 1174,337.5C 1175.87,339.569 1176.87,341.902 1177,344.5C 1109.22,253.556 1020.05,221.722 909.5,249C 838.78,272.724 788.946,318.891 760,387.5C 755.429,397.366 753.263,407.7 753.5,418.5C 752.209,418.263 751.209,418.596 750.5,419.5 Z"/></g>
<g><path style="opacity:1" fill="#fdfdfe" d="M 1191.5,545.5 C 1192.34,545.842 1192.67,546.508 1192.5,547.5C 1185.35,566.807 1175.85,584.807 1164,601.5C 1118.23,659.387 1058.23,689.387 984,691.5C 886.245,688.644 816.245,643.311 774,555.5C 773.333,556.833 773.333,558.167 774,559.5C 775.804,564.58 777.804,569.58 780,574.5C 814.704,645.52 871.204,687.02 949.5,699C 929.394,698.371 909.728,695.038 890.5,689C 833.861,664.029 791.028,624.195 762,569.5C 761.333,570.833 761.333,572.167 762,573.5C 803.489,658.769 871.655,705.769 966.5,714.5C 963.375,715.479 960.042,715.813 956.5,715.5C 920.563,714.349 886.563,705.682 854.5,689.5C 832.605,675.884 812.605,659.884 794.5,641.5C 792.57,637.9 789.903,634.9 786.5,632.5C 782.078,628.413 778.411,623.746 775.5,618.5C 773.938,614.608 771.605,611.275 768.5,608.5C 767.094,608.027 766.427,607.027 766.5,605.5C 758.033,590.899 750.366,575.899 743.5,560.5C 740.654,548.605 738.321,536.605 736.5,524.5C 736.5,521.833 736.5,519.167 736.5,516.5C 739.991,516.091 743.325,515.091 746.5,513.5C 755.492,517.756 764.826,518.589 774.5,516C 778.887,511.848 780.721,506.681 780,500.5C 780.273,498.671 781.107,497.171 782.5,496C 813.237,494.428 826.403,478.261 822,447.5C 821.347,443.347 819.847,439.68 817.5,436.5C 812.983,426.726 805.316,421.059 794.5,419.5C 781.66,418.833 768.66,418.167 755.5,417.5C 769.098,372.12 793.431,333.62 828.5,302C 895.225,247.189 970.058,232.355 1053,257.5C 1056.6,260.049 1060.43,262.216 1064.5,264C 1081.12,269.81 1096.79,277.477 1111.5,287C 1112.96,287.811 1113.29,288.645 1112.5,289.5C 1111.13,287.876 1109.46,287.376 1107.5,288C 1153.34,324.202 1183.5,370.702 1198,427.5C 1205,469.49 1200.33,510.156 1184,549.5C 1144.59,630.984 1079.43,673.484 988.5,677C 996.167,677.667 1003.83,677.667 1011.5,677C 1096.79,667.516 1156.79,623.682 1191.5,545.5 Z"/></g>
<g><path style="opacity:1" fill="#818890" d="M 1133.5,259.5 C 1133.9,258.475 1134.56,258.308 1135.5,259C 1138.02,260.763 1140.35,262.763 1142.5,265C 1139.32,263.732 1136.32,261.899 1133.5,259.5 Z"/></g>
<g><path style="opacity:1" fill="#91989e" d="M 1148.5,270.5 C 1155.58,276.071 1162.24,282.238 1168.5,289C 1167.83,289.667 1167.17,289.667 1166.5,289C 1160.25,282.917 1154.25,276.751 1148.5,270.5 Z"/></g>
<g><path style="opacity:1" fill="#555f69" d="M 1227.5,373.5 C 1227.5,374.167 1227.17,374.5 1226.5,374.5C 1205.18,319.481 1169.51,276.481 1119.5,245.5C 1099.92,233.048 1078.92,223.215 1056.5,216C 1055.17,215.333 1053.83,215.333 1052.5,216C 1075.61,223.408 1097.27,233.575 1117.5,246.5C 1121.65,249.078 1125.65,251.911 1129.5,255C 1113.83,245.32 1097.5,236.32 1080.5,228C 1066.18,222.006 1051.52,217.006 1036.5,213C 1035.17,212.333 1035.17,211.667 1036.5,211C 980.1,199.436 925.1,204.103 871.5,225C 858.237,230.804 845.237,236.804 832.5,243C 897.686,204.448 967.353,193.448 1041.5,210C 1116.18,229.37 1173.01,272.203 1212,338.5C 1218.05,349.817 1223.21,361.483 1227.5,373.5 Z"/></g>
<g><path style="opacity:1" fill="#dbdddf" d="M 1119.5,245.5 C 1118.51,245.328 1117.84,245.662 1117.5,246.5C 1097.27,233.575 1075.61,223.408 1052.5,216C 1053.83,215.333 1055.17,215.333 1056.5,216C 1078.92,223.215 1099.92,233.048 1119.5,245.5 Z"/></g>
<g><path style="opacity:1" fill="#858c93" d="M 1197.5,326.5 C 1194.23,323.762 1192.07,320.429 1191,316.5C 1193.81,319.464 1195.98,322.798 1197.5,326.5 Z"/></g>
<g><path style="opacity:1" fill="#0f1d2b" d="M 494.5,434.5 C 497.122,440.856 498.122,447.522 497.5,454.5C 489.167,454.5 480.833,454.5 472.5,454.5C 473.704,447.572 471.371,442.405 465.5,439C 459.307,437.346 455.14,439.513 453,445.5C 452.333,457.5 452.333,469.5 453,481.5C 455.253,488.106 459.753,490.273 466.5,488C 469.663,486.52 471.496,484.02 472,480.5C 472.497,477.854 472.664,475.187 472.5,472.5C 480.833,472.5 489.167,472.5 497.5,472.5C 498.62,498.547 486.12,511.214 460,510.5C 440.915,510.084 429.915,500.417 427,481.5C 426.333,469.5 426.333,457.5 427,445.5C 427.396,442.343 428.229,439.343 429.5,436.5C 435.625,422.739 446.292,416.406 461.5,417.5C 476.344,416.086 487.344,421.753 494.5,434.5 Z"/></g>
<g><path style="opacity:1" fill="#0f1d2b" d="M 574.5,435.5 C 575.771,438.343 576.604,441.343 577,444.5C 577.667,456.5 577.667,468.5 577,480.5C 574.078,500.896 562.245,510.896 541.5,510.5C 519.827,510.081 507.993,499.081 506,477.5C 505.333,466.833 505.333,456.167 506,445.5C 507.018,441.751 508.185,438.084 509.5,434.5C 516.292,422.184 526.792,416.518 541,417.5C 556.156,416.325 567.323,422.325 574.5,435.5 Z"/></g>
<g><path style="opacity:1" fill="#101d2b" d="M 657.5,454.5 C 649.167,454.5 640.833,454.5 632.5,454.5C 632.802,451.941 632.468,449.607 631.5,447.5C 630.19,440.173 625.857,437.339 618.5,439C 616.714,439.785 615.214,440.951 614,442.5C 612.372,455.405 612.039,468.405 613,481.5C 615.208,488.11 619.708,490.276 626.5,488C 631.381,484.054 633.381,478.887 632.5,472.5C 640.833,472.5 649.167,472.5 657.5,472.5C 658.575,498.592 646.075,511.258 620,510.5C 600.902,510.07 589.902,500.403 587,481.5C 586.333,468.5 586.333,455.5 587,442.5C 587.881,439.353 589.047,436.353 590.5,433.5C 597.271,421.612 607.604,416.279 621.5,417.5C 646.332,417.332 658.332,429.666 657.5,454.5 Z"/></g>
<g><path style="opacity:1" fill="#601beb" d="M 1109.5,435.5 C 1111.99,441.554 1112.99,447.888 1112.5,454.5C 1103.83,454.5 1095.17,454.5 1086.5,454.5C 1087.01,449.879 1086.17,445.546 1084,441.5C 1075.78,436.152 1070.11,438.152 1067,447.5C 1066.33,457.833 1066.33,468.167 1067,478.5C 1068.06,487.285 1072.89,490.452 1081.5,488C 1086.05,483.868 1087.72,478.701 1086.5,472.5C 1095.17,472.5 1103.83,472.5 1112.5,472.5C 1111.74,501.747 1096.74,514.247 1067.5,510C 1054.11,506.944 1045.61,498.777 1042,485.5C 1039.57,468.696 1040.07,452.029 1043.5,435.5C 1050.35,423.061 1061.02,416.728 1075.5,416.5C 1086.92,416.137 1096.75,419.804 1105,427.5C 1106.77,430.032 1108.27,432.699 1109.5,435.5 Z"/></g>
<g><path style="opacity:1" fill="#5a636d" d="M 719.5,419.5 C 707.753,419.189 696.086,419.522 684.5,420.5C 689.96,419.171 695.793,418.504 702,418.5C 708.01,418.501 713.843,418.834 719.5,419.5 Z"/></g>
<g><path style="opacity:1" fill="#e9eaec" d="M 1192.5,547.5 C 1192.67,546.508 1192.34,545.842 1191.5,545.5C 1210.96,493.957 1212.46,441.957 1196,389.5C 1211.74,426.311 1215.41,464.311 1207,503.5C 1202.78,518.404 1197.94,533.07 1192.5,547.5 Z"/></g>
<g><path style="opacity:1" fill="#0f1d2b" d="M 719.5,419.5 C 721.101,422.55 722.101,425.884 722.5,429.5C 722.875,431.698 723.542,433.698 724.5,435.5C 727.058,445.781 729.558,456.115 732,466.5C 732.667,469.167 733.333,469.167 734,466.5C 734.338,471.547 735.005,476.547 736,481.5C 738.953,490.311 741.119,499.311 742.5,508.5C 739.833,508.5 737.167,508.5 734.5,508.5C 733.833,508.5 733.167,508.5 732.5,508.5C 727.167,508.5 721.833,508.5 716.5,508.5C 715.756,503.781 714.756,499.114 713.5,494.5C 706.197,493.503 698.863,493.169 691.5,493.5C 690.117,498.415 689.117,503.415 688.5,508.5C 679.475,508.832 670.475,508.498 661.5,507.5C 669.088,479.892 676.421,452.225 683.5,424.5C 684.234,423.292 684.567,421.959 684.5,420.5C 696.086,419.522 707.753,419.189 719.5,419.5 Z"/></g>
<g><path style="opacity:1" fill="#0f1d2b" d="M 750.5,419.5 C 765.167,419.5 779.833,419.5 794.5,419.5C 805.316,421.059 812.983,426.726 817.5,436.5C 817.838,438.854 818.338,441.187 819,443.5C 822.127,474.873 807.96,489.206 776.5,486.5C 776.5,493.833 776.5,501.167 776.5,508.5C 767.833,508.5 759.167,508.5 750.5,508.5C 750.5,478.833 750.5,449.167 750.5,419.5 Z"/></g>
<g><path style="opacity:1" fill="#0f1d2b" d="M 881.5,424.5 C 888.19,452.224 895.19,479.89 902.5,507.5C 893.525,508.498 884.525,508.832 875.5,508.5C 875.092,503.463 874.426,498.463 873.5,493.5C 865.833,493.5 858.167,493.5 850.5,493.5C 849.574,498.463 848.908,503.463 848.5,508.5C 839.475,508.832 830.475,508.498 821.5,507.5C 828.526,479.395 835.859,451.395 843.5,423.5C 844.038,421.883 844.371,420.216 844.5,418.5C 856.186,418.168 867.852,418.501 879.5,419.5C 880.028,421.336 880.694,423.003 881.5,424.5 Z"/></g>
<g><path style="opacity:1" fill="#5f1aeb" d="M 975.5,418.5 C 994.5,418.5 1013.5,418.5 1032.5,418.5C 1032.5,425.5 1032.5,432.5 1032.5,439.5C 1022.17,439.5 1011.83,439.5 1001.5,439.5C 1001.5,444.167 1001.5,448.833 1001.5,453.5C 1010.83,453.5 1020.17,453.5 1029.5,453.5C 1029.5,459.833 1029.5,466.167 1029.5,472.5C 1020.17,472.5 1010.83,472.5 1001.5,472.5C 1001.5,477.5 1001.5,482.5 1001.5,487.5C 1012.17,487.5 1022.83,487.5 1033.5,487.5C 1033.5,494.5 1033.5,501.5 1033.5,508.5C 1014.17,508.5 994.833,508.5 975.5,508.5C 975.5,478.5 975.5,448.5 975.5,418.5 Z"/></g>
<g><path style="opacity:1" fill="#5e17ea" d="M 1148.5,452.5 C 1154.5,452.5 1160.5,452.5 1166.5,452.5C 1167.49,441.679 1167.83,430.679 1167.5,419.5C 1175.83,419.5 1184.17,419.5 1192.5,419.5C 1192.5,426.5 1192.5,433.5 1192.5,440.5C 1192.67,460.503 1192.5,480.503 1192,500.5C 1191.45,503.379 1190.62,506.046 1189.5,508.5C 1181.83,508.5 1174.17,508.5 1166.5,508.5C 1166.5,497.167 1166.5,485.833 1166.5,474.5C 1160.36,473.51 1154.02,473.177 1147.5,473.5C 1147.5,485.167 1147.5,496.833 1147.5,508.5C 1139.17,508.5 1130.83,508.5 1122.5,508.5C 1122.5,478.833 1122.5,449.167 1122.5,419.5C 1130.83,419.5 1139.17,419.5 1147.5,419.5C 1147.17,430.679 1147.51,441.679 1148.5,452.5 Z"/></g>
<g><path style="opacity:1" fill="#7b42ed" d="M 1192.5,419.5 C 1184.17,419.5 1175.83,419.5 1167.5,419.5C 1167.83,430.679 1167.49,441.679 1166.5,452.5C 1166.5,441.167 1166.5,429.833 1166.5,418.5C 1175.35,418.174 1184.02,418.507 1192.5,419.5 Z"/></g>
<g><path style="opacity:1" fill="#f1f0f4" d="M 904.5,418.5 C 904.5,418.833 904.5,419.167 904.5,419.5C 904.5,426.5 904.5,433.5 904.5,440.5C 910.833,440.5 917.167,440.5 923.5,440.5C 923.5,463.167 923.5,485.833 923.5,508.5C 932.167,508.5 940.833,508.5 949.5,508.5C 949.5,485.833 949.5,463.167 949.5,440.5C 955.833,440.5 962.167,440.5 968.5,440.5C 968.5,434.5 968.5,428.5 968.5,422.5C 972.436,424.031 974.77,422.697 975.5,418.5C 975.5,448.5 975.5,478.5 975.5,508.5C 994.833,508.5 1014.17,508.5 1033.5,508.5C 1033.5,501.5 1033.5,494.5 1033.5,487.5C 1034.43,488.568 1034.77,489.901 1034.5,491.5C 1035.5,491.5 1036.5,491.5 1037.5,491.5C 1036.27,476.644 1036.27,461.977 1037.5,447.5C 1038.48,442.881 1040.48,438.881 1043.5,435.5C 1040.07,452.029 1039.57,468.696 1042,485.5C 1045.61,498.777 1054.11,506.944 1067.5,510C 1096.74,514.247 1111.74,501.747 1112.5,472.5C 1103.83,472.5 1095.17,472.5 1086.5,472.5C 1087.72,478.701 1086.05,483.868 1081.5,488C 1072.89,490.452 1068.06,487.285 1067,478.5C 1066.33,468.167 1066.33,457.833 1067,447.5C 1070.11,438.152 1075.78,436.152 1084,441.5C 1086.17,445.546 1087.01,449.879 1086.5,454.5C 1095.17,454.5 1103.83,454.5 1112.5,454.5C 1112.99,447.888 1111.99,441.554 1109.5,435.5C 1110.38,435.369 1111.04,435.702 1111.5,436.5C 1113.45,439.307 1114.95,442.307 1116,445.5C 1118.01,439.349 1119.01,433.016 1119,426.5C 1119.38,425.058 1120.21,424.058 1121.5,423.5C 1121.17,452.005 1121.5,480.338 1122.5,508.5C 1130.83,508.5 1139.17,508.5 1147.5,508.5C 1148.49,497.346 1148.83,486.012 1148.5,474.5C 1154.5,474.5 1160.5,474.5 1166.5,474.5C 1166.5,485.833 1166.5,497.167 1166.5,508.5C 1174.17,508.5 1181.83,508.5 1189.5,508.5C 1189.58,511.781 1188.91,514.781 1187.5,517.5C 1182.8,517.566 1177.8,517.399 1172.5,517C 1166.2,516.363 1163.03,512.863 1163,506.5C 1162.67,499.5 1162.33,492.5 1162,485.5C 1158.26,481.434 1154.92,481.767 1152,486.5C 1151.91,495.242 1151.24,503.909 1150,512.5C 1148.05,514.894 1145.55,516.394 1142.5,517C 1137.5,517.667 1132.5,517.667 1127.5,517C 1123.46,516.399 1120.63,514.232 1119,510.5C 1118.99,504.317 1117.99,498.317 1116,492.5C 1106.35,514.637 1089.51,523.137 1065.5,518C 1054.3,515.475 1045.97,509.141 1040.5,499C 1039.55,498.517 1038.55,498.351 1037.5,498.5C 1037.69,502.915 1037.19,507.249 1036,511.5C 1035.17,513.667 1033.67,515.167 1031.5,516C 1022.39,517.11 1013.22,517.61 1004,517.5C 996.167,517.333 988.333,517.167 980.5,517C 976.078,516.242 973.245,513.742 972,509.5C 971.667,490.167 971.333,470.833 971,451.5C 970.691,450.234 970.191,449.067 969.5,448C 965.097,447.947 960.43,448.613 955.5,450C 953.996,451.491 953.163,453.324 953,455.5C 952.667,473.833 952.333,492.167 952,510.5C 951.226,512.939 949.726,514.773 947.5,516C 939.369,518.228 931.369,517.895 923.5,515C 921.513,513.681 920.346,511.848 920,509.5C 919.667,490.5 919.333,471.5 919,452.5C 918.5,451.333 917.667,450.5 916.5,450C 911.955,449.293 907.622,447.96 903.5,446C 900.797,440.82 899.964,435.32 901,429.5C 902.238,425.732 903.404,422.066 904.5,418.5 Z"/></g>
<g><path style="opacity:1" fill="#5f19eb" d="M 904.5,419.5 C 925.5,419.5 946.5,419.5 967.5,419.5C 967.5,426.167 967.5,432.833 967.5,439.5C 961.31,439.177 955.31,439.51 949.5,440.5C 949.5,463.167 949.5,485.833 949.5,508.5C 940.833,508.5 932.167,508.5 923.5,508.5C 923.5,485.833 923.5,463.167 923.5,440.5C 917.167,440.5 910.833,440.5 904.5,440.5C 904.5,433.5 904.5,426.5 904.5,419.5 Z"/></g>
<g><path style="opacity:1" fill="#8c5bee" d="M 904.5,419.5 C 904.5,419.167 904.5,418.833 904.5,418.5C 925.833,418.5 947.167,418.5 968.5,418.5C 968.5,419.833 968.5,421.167 968.5,422.5C 968.5,428.5 968.5,434.5 968.5,440.5C 962.167,440.5 955.833,440.5 949.5,440.5C 955.31,439.51 961.31,439.177 967.5,439.5C 967.5,432.833 967.5,426.167 967.5,419.5C 946.5,419.5 925.5,419.5 904.5,419.5 Z"/></g>
<g><path style="opacity:1" fill="#eeeeef" d="M 683.5,424.5 C 676.421,452.225 669.088,479.892 661.5,507.5C 670.475,508.498 679.475,508.832 688.5,508.5C 689.117,503.415 690.117,498.415 691.5,493.5C 698.863,493.169 706.197,493.503 713.5,494.5C 714.756,499.114 715.756,503.781 716.5,508.5C 721.833,508.5 727.167,508.5 732.5,508.5C 733.299,511.43 733.632,514.43 733.5,517.5C 728.087,517.771 722.754,517.271 717.5,516C 716.069,515.535 714.903,514.701 714,513.5C 712.63,509.867 710.796,506.533 708.5,503.5C 699.831,500.075 694.331,502.742 692,511.5C 690.833,513.333 689.333,514.833 687.5,516C 681.235,517.484 674.902,517.818 668.5,517C 662.1,516.433 659.1,512.933 659.5,506.5C 659.742,503.986 660.075,501.819 660.5,500C 660,499.833 659.5,499.667 659,499.5C 647.678,516.305 631.511,522.471 610.5,518C 597.541,515.042 589.041,507.209 585,494.5C 583,490.5 581,490.5 579,494.5C 572.561,511.241 560.228,519.574 542,519.5C 528.482,519.889 517.482,514.889 509,504.5C 507.404,500.296 505.071,496.629 502,493.5C 499.023,498.104 496.023,502.771 493,507.5C 480.683,518.078 466.517,521.578 450.5,518C 433.913,513.025 424.747,501.859 423,484.5C 422.333,474.167 422.333,463.833 423,453.5C 423.263,448.995 424.263,444.661 426,440.5C 426.498,438.456 427.665,437.122 429.5,436.5C 428.229,439.343 427.396,442.343 427,445.5C 426.333,457.5 426.333,469.5 427,481.5C 429.915,500.417 440.915,510.084 460,510.5C 486.12,511.214 498.62,498.547 497.5,472.5C 489.167,472.5 480.833,472.5 472.5,472.5C 472.664,475.187 472.497,477.854 472,480.5C 471.496,484.02 469.663,486.52 466.5,488C 459.753,490.273 455.253,488.106 453,481.5C 452.333,469.5 452.333,457.5 453,445.5C 455.14,439.513 459.307,437.346 465.5,439C 471.371,442.405 473.704,447.572 472.5,454.5C 480.833,454.5 489.167,454.5 497.5,454.5C 498.122,447.522 497.122,440.856 494.5,434.5C 496.987,437.864 499.654,441.197 502.5,444.5C 504.724,441.847 506.391,438.847 507.5,435.5C 507.957,434.702 508.624,434.369 509.5,434.5C 508.185,438.084 507.018,441.751 506,445.5C 505.333,456.167 505.333,466.833 506,477.5C 507.993,499.081 519.827,510.081 541.5,510.5C 562.245,510.896 574.078,500.896 577,480.5C 577.667,468.5 577.667,456.5 577,444.5C 576.604,441.343 575.771,438.343 574.5,435.5C 576.733,438.935 579.233,442.269 582,445.5C 584.805,442.304 586.972,438.638 588.5,434.5C 588.957,433.702 589.624,433.369 590.5,433.5C 589.047,436.353 587.881,439.353 587,442.5C 586.333,455.5 586.333,468.5 587,481.5C 589.902,500.403 600.902,510.07 620,510.5C 646.075,511.258 658.575,498.592 657.5,472.5C 659.577,476.439 660.91,480.772 661.5,485.5C 664.05,485.439 665.55,484.106 666,481.5C 670.859,462.728 676.026,444.061 681.5,425.5C 681.957,424.702 682.624,424.369 683.5,424.5 Z"/></g>
<g><path style="opacity:1" fill="#9f77ee" d="M 1148.5,452.5 C 1147.51,441.679 1147.17,430.679 1147.5,419.5C 1139.17,419.5 1130.83,419.5 1122.5,419.5C 1122.5,449.167 1122.5,478.833 1122.5,508.5C 1121.5,480.338 1121.17,452.005 1121.5,423.5C 1121.5,421.833 1121.5,420.167 1121.5,418.5C 1130.5,418.5 1139.5,418.5 1148.5,418.5C 1148.5,429.833 1148.5,441.167 1148.5,452.5 Z"/></g>
<g><path style="opacity:1" fill="#f7f7f8" d="M 537.5,438.5 C 543.448,437.528 547.948,439.528 551,444.5C 551.667,456.833 551.667,469.167 551,481.5C 548.792,488.11 544.292,490.276 537.5,488C 534.619,486.749 532.786,484.583 532,481.5C 531.333,469.833 531.333,458.167 532,446.5C 533.243,443.424 535.077,440.757 537.5,438.5 Z"/></g>
<g><path style="opacity:1" fill="#787f87" d="M 786.5,440.5 C 783.167,440.5 779.833,440.5 776.5,440.5C 776.5,448.5 776.5,456.5 776.5,464.5C 779.833,464.5 783.167,464.5 786.5,464.5C 783.038,465.482 779.371,465.815 775.5,465.5C 775.5,456.833 775.5,448.167 775.5,439.5C 779.371,439.185 783.038,439.518 786.5,440.5 Z"/></g>
<g><path style="opacity:1" fill="#f4f4f5" d="M 786.5,440.5 C 791.706,442.386 794.039,446.22 793.5,452C 793.675,455.746 792.842,459.246 791,462.5C 789.67,463.582 788.17,464.249 786.5,464.5C 783.167,464.5 779.833,464.5 776.5,464.5C 776.5,456.5 776.5,448.5 776.5,440.5C 779.833,440.5 783.167,440.5 786.5,440.5 Z"/></g>
<g><path style="opacity:1" fill="#81888f" d="M 631.5,447.5 C 632.468,449.607 632.802,451.941 632.5,454.5C 640.833,454.5 649.167,454.5 657.5,454.5C 649.016,455.493 640.349,455.826 631.5,455.5C 631.5,452.833 631.5,450.167 631.5,447.5 Z"/></g>
<g><path style="opacity:1" fill="#dfe0e1" d="M 701.5,440.5 C 702.693,440.97 703.36,441.97 703.5,443.5C 705.503,453.848 707.503,464.181 709.5,474.5C 704.833,474.5 700.167,474.5 695.5,474.5C 697.885,463.242 699.885,451.909 701.5,440.5 Z"/></g>
<g><path style="opacity:1" fill="#bea7ec" d="M 1166.5,474.5 C 1160.5,474.5 1154.5,474.5 1148.5,474.5C 1148.83,486.012 1148.49,497.346 1147.5,508.5C 1147.5,496.833 1147.5,485.167 1147.5,473.5C 1154.02,473.177 1160.36,473.51 1166.5,474.5 Z"/></g>
<g><path style="opacity:1" fill="#4e5863" d="M 1197.5,326.5 C 1235.09,381.386 1247.59,441.72 1235,507.5C 1230.86,526.746 1225.03,545.413 1217.5,563.5C 1216.96,563.44 1216.62,563.107 1216.5,562.5C 1219.07,556.967 1220.9,551.3 1222,545.5C 1221.72,546.416 1221.22,547.082 1220.5,547.5C 1224.14,535.319 1227.14,522.985 1229.5,510.5C 1237.22,463.463 1232.88,417.63 1216.5,373C 1216.67,372.5 1216.83,372 1217,371.5C 1232.29,409.365 1238.12,448.699 1234.5,489.5C 1232.01,503.76 1229.51,518.093 1227,532.5C 1231.11,518.747 1233.94,504.747 1235.5,490.5C 1240.34,449.181 1235.17,409.181 1220,370.5C 1213.26,355.342 1205.76,340.676 1197.5,326.5 Z"/></g>
<g><path style="opacity:1" fill="#ebecec" d="M 843.5,423.5 C 835.859,451.395 828.526,479.395 821.5,507.5C 830.475,508.498 839.475,508.832 848.5,508.5C 848.908,503.463 849.574,498.463 850.5,493.5C 858.167,493.5 865.833,493.5 873.5,493.5C 874.426,498.463 875.092,503.463 875.5,508.5C 884.525,508.832 893.525,508.498 902.5,507.5C 895.19,479.89 888.19,452.224 881.5,424.5C 883.41,425.975 884.576,427.975 885,430.5C 891.333,454.833 897.667,479.167 904,503.5C 906.002,510.673 903.502,515.173 896.5,517C 889.302,518.054 882.302,517.388 875.5,515C 872.655,511.639 870.321,507.972 868.5,504C 864.625,502.48 860.625,502.146 856.5,503C 853.833,507 851.167,511 848.5,515C 840.296,517.902 831.962,518.235 823.5,516C 820.372,514.212 819.039,511.545 819.5,508C 825.651,480.23 832.817,452.73 841,425.5C 841.708,424.619 842.542,423.953 843.5,423.5 Z"/></g>
<g><path style="opacity:1" fill="#e1e2e3" d="M 861.5,440.5 C 864.463,451.588 866.797,462.921 868.5,474.5C 864.167,474.5 859.833,474.5 855.5,474.5C 857.291,463.129 859.291,451.795 861.5,440.5 Z"/></g>
<g><path style="opacity:1" fill="#80878f" d="M 1227.5,373.5 C 1239.18,403.586 1244.85,434.92 1244.5,467.5C 1244.75,496.255 1239.75,523.922 1229.5,550.5C 1248.86,491.405 1247.86,432.738 1226.5,374.5C 1227.17,374.5 1227.5,374.167 1227.5,373.5 Z"/></g>
<g><path style="opacity:1" fill="#ced1d4" d="M 1217.5,477.5 C 1217.18,483.69 1217.51,489.69 1218.5,495.5C 1216.41,510.041 1213.24,524.374 1209,538.5C 1208.83,537.833 1208.67,537.167 1208.5,536.5C 1214.19,517.097 1217.19,497.431 1217.5,477.5 Z"/></g>
<g><path style="opacity:1" fill="#b2b6bb" d="M 1234.5,489.5 C 1234.5,490.167 1234.83,490.5 1235.5,490.5C 1233.94,504.747 1231.11,518.747 1227,532.5C 1229.51,518.093 1232.01,503.76 1234.5,489.5 Z"/></g>
<g><path style="opacity:1" fill="#ced1d4" d="M 1227.5,506.5 C 1228.17,507.833 1228.83,509.167 1229.5,510.5C 1227.14,522.985 1224.14,535.319 1220.5,547.5C 1220.17,547.5 1219.83,547.5 1219.5,547.5C 1222.31,536.931 1224.81,526.264 1227,515.5C 1227.5,512.518 1227.66,509.518 1227.5,506.5 Z"/></g>
<g><path style="opacity:1" fill="#68717a" d="M 732.5,508.5 C 733.167,508.5 733.833,508.5 734.5,508.5C 734.668,514.034 735.335,519.367 736.5,524.5C 738.321,536.605 740.654,548.605 743.5,560.5C 738.459,546.663 735.126,532.33 733.5,517.5C 733.632,514.43 733.299,511.43 732.5,508.5 Z"/></g>
<g><path style="opacity:1" fill="#5c6471" d="M 1192.5,440.5 C 1201.7,500.34 1186.87,553.673 1148,600.5C 1138.02,611.822 1126.85,621.655 1114.5,630C 1113.83,630.667 1113.17,630.667 1112.5,630C 1151.63,602.017 1176.63,564.517 1187.5,517.5C 1188.91,514.781 1189.58,511.781 1189.5,508.5C 1190.62,506.046 1191.45,503.379 1192,500.5C 1192.5,480.503 1192.67,460.503 1192.5,440.5 Z"/></g>
<g><path style="opacity:1" fill="#888f96" d="M 1217.5,563.5 C 1217.67,564.492 1217.34,565.158 1216.5,565.5C 1215.03,566.225 1213.86,567.891 1213,570.5C 1212.08,569.953 1211.24,569.287 1210.5,568.5C 1213.72,561.481 1216.72,554.481 1219.5,547.5C 1219.83,547.5 1220.17,547.5 1220.5,547.5C 1221.22,547.082 1221.72,546.416 1222,545.5C 1220.9,551.3 1219.07,556.967 1216.5,562.5C 1216.62,563.107 1216.96,563.44 1217.5,563.5 Z"/></g>
<g><path style="opacity:1" fill="#68717a" d="M 1229.5,550.5 C 1228.71,555.043 1227.21,559.376 1225,563.5C 1225.6,558.853 1227.1,554.52 1229.5,550.5 Z"/></g>
<g><path style="opacity:1" fill="#707881" d="M 1221.5,568.5 C 1222.57,569.251 1222.74,570.251 1222,571.5C 1218.83,577.842 1215.66,584.176 1212.5,590.5C 1212.17,590.167 1211.83,589.833 1211.5,589.5C 1215.12,582.6 1218.45,575.6 1221.5,568.5 Z"/></g>
<g><path style="opacity:1" fill="#626b74" d="M 743.5,560.5 C 750.366,575.899 758.033,590.899 766.5,605.5C 758.763,595.045 752.263,583.712 747,571.5C 745.326,567.979 744.16,564.313 743.5,560.5 Z"/></g>
<g><path style="opacity:1" fill="#b8bcc0" d="M 1192.5,594.5 C 1193.04,594.56 1193.38,594.893 1193.5,595.5C 1191.58,599.004 1189.42,602.337 1187,605.5C 1188.25,601.674 1190.08,598.007 1192.5,594.5 Z"/></g>
<g><path style="opacity:1" fill="#7b838a" d="M 1207.5,595.5 C 1208.04,595.56 1208.38,595.893 1208.5,596.5C 1205.59,602.239 1202.09,607.572 1198,612.5C 1200.81,606.802 1203.97,601.135 1207.5,595.5 Z"/></g>
<g><path style="opacity:1" fill="#757d85" d="M 768.5,608.5 C 771.605,611.275 773.938,614.608 775.5,618.5C 772.395,615.725 770.062,612.392 768.5,608.5 Z"/></g>
<g><path style="opacity:1" fill="#a9aeb3" d="M 1189.5,613.5 C 1187.64,617.542 1185.14,621.208 1182,624.5C 1181.62,623.944 1181.12,623.611 1180.5,623.5C 1182.81,620.337 1184.98,617.003 1187,613.5C 1188.39,611.158 1189.23,611.158 1189.5,613.5 Z"/></g>
<g><path style="opacity:1" fill="#c3c7ca" d="M 1164.5,633.5 C 1171.14,625.347 1177.64,617.014 1184,608.5C 1179.32,618.039 1172.82,626.372 1164.5,633.5 Z"/></g>
<g><path style="opacity:1" fill="#838a91" d="M 786.5,632.5 C 789.903,634.9 792.57,637.9 794.5,641.5C 791.097,639.1 788.43,636.1 786.5,632.5 Z"/></g>
<g><path style="opacity:1" fill="#7d848c" d="M 1164.5,633.5 C 1160.43,639.075 1155.77,644.241 1150.5,649C 1145.83,653 1141.17,657 1136.5,661C 1134.63,662.602 1132.63,663.602 1130.5,664C 1142.05,654.06 1153.39,643.894 1164.5,633.5 Z"/></g>
<g><path style="opacity:1" fill="#7b838b" d="M 1142.5,668.5 C 1158.74,655.1 1173.9,640.433 1188,624.5C 1187.25,626.976 1185.92,629.309 1184,631.5C 1175.5,640 1167,648.5 1158.5,657C 1153.28,661.097 1147.95,664.931 1142.5,668.5 Z"/></g>
<g><path style="opacity:1" fill="#727a82" d="M 794.5,641.5 C 812.605,659.884 832.605,675.884 854.5,689.5C 851.777,688.648 849.11,687.481 846.5,686C 832.309,676.814 818.976,666.48 806.5,655C 801.898,650.906 797.898,646.406 794.5,641.5 Z"/></g>
<g><path style="opacity:1" fill="#727a82" d="M 1142.5,668.5 C 1140.72,671.046 1138.39,672.546 1135.5,673C 1137.55,670.98 1139.88,669.48 1142.5,668.5 Z"/></g>
<g><path style="opacity:1" fill="#717982" d="M 1102.5,691.5 C 1095.39,695.985 1087.73,699.318 1079.5,701.5C 1086.94,697.793 1094.6,694.46 1102.5,691.5 Z"/></g>
<g><path style="opacity:1" fill="#ced1d4" d="M 1099.5,672.5 C 1101.7,672.846 1101.87,673.513 1100,674.5C 1062.47,695.09 1022.31,705.757 979.5,706.5C 966.397,706.445 953.397,705.278 940.5,703C 996.818,709.497 1049.82,699.331 1099.5,672.5 Z"/></g>
<g><path style="opacity:1" fill="#8b9198" d="M 1042.5,707.5 C 1050.19,704.77 1058.02,702.103 1066,699.5C 1066.5,699.833 1067,700.167 1067.5,700.5C 1059.32,703.449 1050.99,705.783 1042.5,707.5 Z"/></g>
<g><path style="opacity:1" fill="#d7d9dc" d="M 1102.5,691.5 C 1094.6,694.46 1086.94,697.793 1079.5,701.5C 1056.47,710.174 1032.81,716.507 1008.5,720.5C 1006.74,719.539 1004.74,719.205 1002.5,719.5C 1037.52,714.827 1070.86,704.493 1102.5,688.5C 1105.52,689.625 1108.35,688.959 1111,686.5C 1111.17,686.833 1111.33,687.167 1111.5,687.5C 1108.85,689.658 1105.85,690.992 1102.5,691.5 Z"/></g>
<g><path style="opacity:1" fill="#bcbfc4" d="M 1042.5,707.5 C 1014.34,715.717 985.668,718.383 956.5,715.5C 960.042,715.813 963.375,715.479 966.5,714.5C 992.149,715.411 1017.48,713.077 1042.5,707.5 Z"/></g>
<g><path style="opacity:1" fill="#868d94" d="M 1079.5,701.5 C 1054.88,712.449 1029.05,719.449 1002,722.5C 1000.83,722.333 999.667,722.167 998.5,722C 1001.76,720.957 1005.09,720.457 1008.5,720.5C 1032.81,716.507 1056.47,710.174 1079.5,701.5 Z"/></g>
</svg>
